<?xml version="1.0" encoding="UTF-8" ?>
<!DOCTYPE svg PUBLIC "-//W3C//DTD SVG 1.1//EN" "http://www.w3.org/Graphics/SVG/1.1/DTD/svg11.dtd">
<svg width="1152pt" height="1152pt" viewBox="0 0 1152 1152" version="1.1" xmlns="http://www.w3.org/2000/svg">
<g id="#99b458ff">
<path fill="#99b458" opacity="1.00" d=" M 512.65 412.12 C 535.42 417.18 559.37 422.08 578.25 436.68 C 592.28 447.12 601.61 463.74 602.21 481.32 C 597.04 466.12 586.56 452.67 572.50 444.77 C 558.55 436.46 542.46 433.08 526.80 429.58 C 527.81 437.37 526.70 445.18 526.84 452.99 C 526.74 463.40 526.55 473.87 527.84 484.22 C 532.19 507.97 551.66 526.74 574.00 534.37 C 543.86 533.89 516.58 507.95 514.05 477.97 C 511.94 456.09 512.44 434.07 512.65 412.12 Z" />
<path fill="#99b458" opacity="1.00" d=" M 749.55 450.50 C 760.53 445.69 768.52 436.32 775.71 427.06 C 773.73 447.67 766.77 467.63 756.63 485.62 C 748.64 499.10 739.21 512.65 725.19 520.40 C 702.58 532.64 676.22 536.92 650.75 535.10 C 654.44 533.88 658.37 533.82 662.16 533.03 C 682.30 529.28 702.30 522.93 719.55 511.65 C 735.45 500.53 743.48 482.19 751.68 465.31 C 733.62 471.63 714.17 470.03 695.48 468.31 C 683.41 467.40 671.01 465.39 659.11 468.64 C 648.15 471.44 638.20 477.35 629.62 484.62 C 623.41 490.17 617.29 496.19 613.88 503.94 C 611.37 508.76 610.69 514.19 609.03 519.31 C 607.82 507.41 611.83 495.40 619.09 486.02 C 629.70 472.34 644.24 461.19 661.15 456.73 C 680.21 452.33 699.74 456.09 719.02 455.78 C 729.37 455.75 739.93 454.52 749.55 450.50 Z" />
<path fill="#99b458" opacity="1.00" d=" M 551.99 456.98 C 565.36 462.65 575.72 473.65 583.00 485.99 C 592.58 502.37 598.81 520.97 599.40 540.03 C 599.48 543.24 599.24 546.47 599.51 549.69 C 605.50 532.12 619.63 518.69 634.89 508.82 C 656.57 495.10 681.58 486.18 707.29 484.70 C 696.99 492.71 685.06 498.38 673.57 504.47 C 648.04 517.30 621.06 529.85 602.29 552.18 C 599.83 552.11 597.37 552.17 594.92 552.27 C 582.72 519.64 570.90 486.47 551.99 456.98 Z" />
</g>
<g id="#5e6a44ff">
<path fill="#5e6a44" opacity="1.00" d=" M 594.92 552.27 C 597.37 552.17 599.83 552.11 602.29 552.18 C 624.38 553.11 643.19 573.95 642.36 595.97 C 642.58 615.64 627.49 634.24 608.19 638.05 C 604.79 638.57 601.47 639.78 598.00 639.70 C 585.16 638.71 572.56 632.73 564.52 622.49 C 556.36 612.75 553.74 599.28 555.96 586.96 C 559.57 568.67 575.94 552.94 594.92 552.27 M 594.21 563.15 C 583.24 564.54 573.59 572.22 569.29 582.34 C 562.98 595.87 567.53 613.62 580.01 622.00 C 588.53 628.26 600.10 629.33 609.99 626.04 C 624.99 620.75 633.98 603.20 629.97 587.88 C 626.96 571.96 610.02 560.77 594.21 563.15 Z" />
<path fill="#5e6a44" opacity="1.00" d=" M 663.20 556.21 C 678.41 546.66 700.40 554.12 707.79 570.22 C 704.71 572.08 701.53 573.74 698.55 575.74 C 695.48 570.76 691.33 566.17 685.68 564.18 C 679.97 561.90 673.18 562.62 668.12 566.10 C 663.50 569.77 662.09 577.34 666.00 582.02 C 668.33 584.58 671.70 585.83 674.81 587.20 C 684.81 591.22 696.18 593.07 704.34 600.65 C 713.03 609.76 710.89 626.46 700.47 633.40 C 694.75 637.26 687.80 638.90 681.02 639.54 C 671.82 638.95 662.32 636.05 655.57 629.50 C 652.36 626.47 650.16 622.59 648.32 618.63 C 651.57 616.62 654.87 614.70 658.11 612.67 C 662.71 627.29 682.68 632.34 694.66 623.72 C 699.31 619.83 699.90 611.81 695.47 607.55 C 684.13 598.83 667.84 599.76 657.40 589.55 C 648.73 579.84 651.60 562.38 663.20 556.21 Z" />
<path fill="#5e6a44" opacity="1.00" d=" M 272.21 553.60 C 283.48 553.90 294.76 553.30 306.02 553.78 C 316.16 554.43 325.10 561.95 328.42 571.40 C 329.93 575.42 329.97 579.80 329.63 584.04 C 328.56 596.05 318.13 606.71 305.97 607.36 C 298.48 607.66 290.98 607.44 283.49 607.51 C 283.68 617.42 283.68 627.34 283.49 637.26 C 279.74 637.23 275.99 637.24 272.24 637.23 C 272.23 609.35 272.28 581.48 272.21 553.60 M 283.59 564.40 C 283.69 575.31 283.56 586.23 283.66 597.15 C 292.07 596.87 300.68 598.04 308.92 595.88 C 319.90 591.57 322.12 574.46 312.45 567.62 C 303.99 561.56 293.15 565.19 283.59 564.40 Z" />
<path fill="#5e6a44" opacity="1.00" d=" M 343.82 553.64 C 347.63 553.58 351.45 553.59 355.26 553.63 C 355.21 565.47 355.26 577.31 355.23 589.15 C 368.72 589.03 382.23 589.52 395.71 588.84 C 395.67 577.10 395.72 565.36 395.68 553.62 C 399.41 553.57 403.14 553.58 406.87 553.74 C 406.81 581.62 406.82 609.51 406.87 637.39 C 403.14 637.22 399.41 637.21 395.69 637.24 C 395.61 624.74 395.88 612.25 395.51 599.76 C 382.09 599.81 368.67 599.76 355.25 599.78 C 355.23 612.26 355.24 624.74 355.25 637.23 C 351.55 637.24 347.86 637.24 344.16 637.24 C 343.40 609.39 344.14 581.48 343.82 553.64 Z" />
<path fill="#5e6a44" opacity="1.00" d=" M 417.37 553.61 C 421.69 553.61 426.02 553.78 430.35 553.69 C 437.80 566.33 444.91 579.18 452.53 591.72 C 452.69 591.76 453.01 591.82 453.17 591.85 C 460.52 579.18 468.12 566.65 475.13 553.78 C 479.54 553.61 483.95 553.56 488.36 553.62 C 479.09 568.67 470.40 584.09 461.00 599.06 C 455.46 611.06 459.62 624.58 458.40 637.24 C 454.67 637.23 450.93 637.21 447.21 637.28 C 446.25 629.19 447.62 621.07 447.22 612.96 C 446.90 608.87 447.58 604.37 445.22 600.76 C 436.45 584.75 426.60 569.35 417.37 553.61 Z" />
<path fill="#5e6a44" opacity="1.00" d=" M 492.16 553.62 C 512.27 553.58 532.38 553.63 552.49 553.59 C 552.47 557.17 552.54 560.76 552.64 564.35 C 544.37 564.35 536.09 564.21 527.82 564.54 C 527.87 588.78 527.83 613.01 527.84 637.25 C 524.11 637.23 520.37 637.24 516.64 637.23 C 516.67 612.93 516.62 588.63 516.67 564.32 C 508.50 564.34 500.34 564.33 492.18 564.34 C 492.19 560.76 492.19 557.19 492.16 553.62 Z" />
<path fill="#5e6a44" opacity="1.00" d=" M 713.30 553.74 C 717.34 553.59 721.39 553.60 725.44 553.71 C 733.80 576.67 741.23 599.97 749.82 622.85 C 757.33 599.67 765.72 576.77 773.57 553.70 C 777.69 553.71 781.82 553.56 785.95 553.61 C 775.98 581.54 766.06 609.48 755.90 637.34 C 751.74 637.26 747.58 637.14 743.43 637.34 C 732.89 609.67 723.30 581.62 713.30 553.74 Z" />
<path fill="#5e6a44" opacity="1.00" d=" M 796.62 553.74 C 800.37 553.59 804.13 553.59 807.89 553.74 C 807.81 581.57 807.87 609.41 807.86 637.24 C 804.11 637.24 800.37 637.24 796.63 637.23 C 796.62 609.40 796.65 581.57 796.62 553.74 Z" />
<path fill="#5e6a44" opacity="1.00" d=" M 819.83 564.30 C 819.83 560.74 819.83 557.20 819.82 553.65 C 840.05 553.48 860.28 553.85 880.51 553.60 C 880.50 557.18 880.50 560.76 880.50 564.34 C 872.23 564.23 863.96 564.46 855.68 564.49 C 855.76 588.74 855.68 612.98 855.73 637.23 C 852.02 637.24 848.32 637.24 844.62 637.23 C 844.65 612.98 844.61 588.74 844.64 564.49 C 836.37 564.23 828.10 564.39 819.83 564.30 Z" />
</g>
</svg>
