<svg width="24" height="24" viewBox="0 0 24 24" fill="none" xmlns="http://www.w3.org/2000/svg">
<path d="M7.19995 2.40039C6.56343 2.40039 5.95298 2.65325 5.50289 3.10333C5.05281 3.55342 4.79995 4.16387 4.79995 4.80039V10.8004H5.99995V4.80039C5.99995 4.48213 6.12638 4.17691 6.35142 3.95186C6.57647 3.72682 6.88169 3.60039 7.19995 3.60039H12V7.80039C12 8.27778 12.1896 8.73562 12.5272 9.07318C12.8647 9.41075 13.3226 9.60039 13.8 9.60039H18V19.2004C18 19.5187 17.8735 19.8239 17.6485 20.0489C17.4234 20.274 17.1182 20.4004 16.8 20.4004H13.2V21.6004H16.8C17.4365 21.6004 18.0469 21.3475 18.497 20.8974C18.9471 20.4474 19.2 19.8369 19.2 19.2004V8.89719C19.1995 8.41996 19.0096 7.96243 18.672 7.62519L13.9752 2.92719C13.6377 2.58997 13.1802 2.40049 12.7032 2.40039H7.19995ZM17.7516 8.40039H13.8C13.6408 8.40039 13.4882 8.33718 13.3757 8.22465C13.2632 8.11213 13.2 7.95952 13.2 7.80039V3.84879L17.7516 8.40039ZM4.79995 12.0004H8.39995V14.4004H4.79995V12.0004ZM2.39995 12.0004H3.59995V15.0004C3.59995 15.1595 3.66317 15.3121 3.77569 15.4247C3.88821 15.5372 4.04082 15.6004 4.19995 15.6004H8.99995C9.15908 15.6004 9.31169 15.5372 9.42422 15.4247C9.53674 15.3121 9.59995 15.1595 9.59995 15.0004V12.1084C9.73079 12.1679 9.84989 12.2504 9.95155 12.352L11.6484 14.0488C11.8734 14.2738 11.9999 14.579 12 14.8972V21.6004C12 21.9186 11.8735 22.2239 11.6485 22.4489C11.4234 22.674 11.1182 22.8004 10.8 22.8004V17.4004C10.8 17.2413 10.7367 17.0886 10.6242 16.9761C10.5117 16.8636 10.3591 16.8004 10.2 16.8004H2.99995C2.84082 16.8004 2.68821 16.8636 2.57569 16.9761C2.46317 17.0886 2.39995 17.2413 2.39995 17.4004V22.8004C2.08169 22.8004 1.77647 22.674 1.55142 22.4489C1.32638 22.2239 1.19995 21.9186 1.19995 21.6004V13.2004C1.19995 12.8821 1.32638 12.5769 1.55142 12.3519C1.77647 12.1268 2.08169 12.0004 2.39995 12.0004ZM9.59995 18.0004V22.8004H3.59995V18.0004H9.59995Z" fill="#92BB53"/>
</svg>
