<svg width="25" height="24" viewBox="0 0 25 24" fill="none" xmlns="http://www.w3.org/2000/svg">
<path d="M12.5 6V12H18.5" stroke="#5E5F60" stroke-width="1.5" stroke-linecap="round" stroke-linejoin="round"/>
<path d="M22.388 10.5C21.664 5.689 17.513 2 12.5 2C6.977 2 2.5 6.477 2.5 12C2.5 17.523 6.977 22 12.5 22C16.6 22 20.125 19.532 21.668 16" stroke="#5E5F60" stroke-width="1.5" stroke-linecap="round" stroke-linejoin="round"/>
<path d="M17.5 16H21.9C21.9788 16 22.0568 16.0155 22.1296 16.0457C22.2024 16.0758 22.2685 16.12 22.3243 16.1757C22.38 16.2315 22.4242 16.2976 22.4543 16.3704C22.4845 16.4432 22.5 16.5212 22.5 16.6V21" stroke="#5E5F60" stroke-width="1.5" stroke-linecap="round" stroke-linejoin="round"/>
</svg>
