<svg width="25" height="24" viewBox="0 0 25 24" fill="none" xmlns="http://www.w3.org/2000/svg">
<path d="M9.5001 22.0003L9.2491 18.4913C9.21678 18.0447 9.27685 17.5962 9.42556 17.1738C9.57427 16.7514 9.80843 16.3642 10.1134 16.0363C10.4184 15.7085 10.7877 15.447 11.1983 15.2682C11.6088 15.0894 12.0518 14.9971 12.4996 14.9971C12.9474 14.9971 13.3904 15.0894 13.8009 15.2682C14.2115 15.447 14.5808 15.7085 14.8858 16.0363C15.1908 16.3642 15.4249 16.7514 15.5736 17.1738C15.7224 17.5962 15.7824 18.0447 15.7501 18.4913L15.5001 22.0003" stroke="#92BB53" stroke-width="1.5" stroke-linecap="round" stroke-linejoin="round"/>
<path d="M2.85204 13.214C2.49804 10.916 2.32204 9.768 2.75604 8.749C3.19004 7.73 4.15404 7.034 6.08104 5.641L7.52104 4.6C9.91804 2.867 11.117 2 12.501 2C13.883 2 15.081 2.867 17.479 4.6L18.919 5.641C20.846 7.034 21.809 7.731 22.244 8.749C22.678 9.768 22.502 10.916 22.149 13.213L21.848 15.173C21.348 18.429 21.097 20.057 19.929 21.029C18.761 22.001 17.054 22 13.64 22H11.36C7.94504 22 6.23804 22 5.07004 21.029C3.90204 20.057 3.65204 18.429 3.15204 15.172L2.85204 13.214Z" stroke="#92BB53" stroke-width="1.5" stroke-linecap="round" stroke-linejoin="round"/>
</svg>
