<svg width="16" height="16" viewBox="0 0 16 16" fill="none" xmlns="http://www.w3.org/2000/svg">
<g clip-path="url(#clip0_2273_17179)">
<path d="M14.3627 7.36336C14.5654 7.64758 14.6667 7.78968 14.6667 8.00004C14.6667 8.2104 14.5654 8.3525 14.3627 8.63672C13.452 9.91375 11.1262 12.6667 8.00004 12.6667C4.87389 12.6667 2.54811 9.91375 1.6374 8.63672C1.43472 8.3525 1.33337 8.2104 1.33337 8.00004C1.33337 7.78968 1.43472 7.64758 1.6374 7.36336C2.5481 6.08634 4.87389 3.33337 8.00004 3.33337C11.1262 3.33337 13.452 6.08633 14.3627 7.36336Z" stroke="#92BB53" stroke-width="1.5"/>
<path d="M10 8C10 6.89543 9.10457 6 8 6C6.89543 6 6 6.89543 6 8C6 9.10457 6.89543 10 8 10C9.10457 10 10 9.10457 10 8Z" stroke="#92BB53" stroke-width="1.5"/>
</g>
<defs>
<clipPath id="clip0_2273_17179">
<rect width="16" height="16" fill="white"/>
</clipPath>
</defs>
</svg>
