<svg width="19" height="19" viewBox="0 0 19 19" fill="none" xmlns="http://www.w3.org/2000/svg">
<path d="M3.95837 5.54171C3.95837 5.12178 4.12519 4.71905 4.42212 4.42212C4.71905 4.12519 5.12178 3.95837 5.54171 3.95837H13.4584C13.8783 3.95837 14.281 4.12519 14.578 4.42212C14.8749 4.71905 15.0417 5.12178 15.0417 5.54171V13.4584C15.0417 13.8783 14.8749 14.281 14.578 14.578C14.281 14.8749 13.8783 15.0417 13.4584 15.0417H5.54171C5.12178 15.0417 4.71905 14.8749 4.42212 14.578C4.12519 14.281 3.95837 13.8783 3.95837 13.4584V5.54171Z" stroke="#92BB53" stroke-width="1.5" stroke-linecap="round" stroke-linejoin="round"/>
<path fill-rule="evenodd" clip-rule="evenodd" d="M13.6656 6.12898C13.882 6.33553 13.89 6.67841 13.6834 6.8948L7.99594 12.8531C7.89524 12.9586 7.75626 13.0191 7.61042 13.0208C7.46459 13.0225 7.32424 12.9653 7.22111 12.8621L5.32528 10.9663C5.11374 10.7548 5.11374 10.4118 5.32528 10.2003C5.53681 9.98874 5.87977 9.98874 6.09131 10.2003L7.59511 11.7041L12.8998 6.14679C13.1064 5.93039 13.4492 5.92242 13.6656 6.12898Z" fill="#92BB53"/>
</svg>
