<svg width="31" height="26" viewBox="0 0 31 26" fill="none" xmlns="http://www.w3.org/2000/svg">
<path fill-rule="evenodd" clip-rule="evenodd" d="M0.520187 3.21858C0.543704 6.97115 0.570727 7.47124 0.801832 8.42689C1.01016 9.28827 1.25647 9.86696 1.74928 10.6526C2.72635 12.2103 4.37991 13.4219 6.08169 13.8272C6.53003 13.934 6.70067 13.9596 7.09808 13.9797C7.54764 14.0026 7.56394 13.9788 7.1857 13.8523C6.88783 13.7527 6.802 13.7161 6.3095 13.4787C4.30806 12.5141 2.76255 10.6041 2.29315 8.51494C2.14259 7.84489 2.1422 7.83475 2.15244 4.88756C2.1578 3.338 2.16902 2.06334 2.17729 2.055C2.19271 2.0395 2.5803 2.10634 2.76967 2.15713C2.8275 2.17266 2.96944 2.20559 3.0851 2.23031C3.25627 2.26694 3.954 2.4401 4.48701 2.57822C4.6209 2.61295 5.65558 2.95839 5.74874 2.99949C5.78729 3.0165 5.92923 3.07457 6.06417 3.12856C6.51611 3.30933 7.21675 3.67894 7.65885 3.96973C9.00605 4.85586 9.96164 6.01659 10.4439 7.35263C10.4928 7.48811 10.5333 7.62281 10.5339 7.65197C10.5345 7.6811 10.56 7.73664 10.5906 7.77537C10.6418 7.84028 10.6444 7.80985 10.6235 7.38879C10.6111 7.13741 10.5866 6.87593 10.5691 6.80771C10.3629 6.00384 10.2824 5.77278 10.0399 5.28805C9.13745 3.48457 7.31846 2.04003 4.83266 1.15277C4.07517 0.882404 3.2038 0.629756 2.29652 0.417501C2.07484 0.365626 1.79884 0.300685 1.68318 0.273146C1.56752 0.245641 1.29152 0.182003 1.06984 0.131748C0.848165 0.0814575 0.629255 0.0312729 0.583412 0.0201794L0.5 0L0.520187 3.21858ZM30.3509 1.95481C30.2772 2.03764 30.0975 2.23975 29.9517 2.40393C28.837 3.65879 28.2645 4.10123 27.2506 4.49129C26.5179 4.77321 25.974 4.89281 25.0302 4.97958C24.5551 5.02325 22.8554 5.00416 21.6079 4.94116C19.4954 4.83442 18.7389 4.86227 17.6314 5.08752C16.5275 5.31207 15.4268 5.86361 14.3434 6.73509C12.4033 8.29582 11.3106 10.2951 11.5153 11.9093C11.5402 12.1053 11.5737 12.2656 11.5899 12.2656C11.606 12.2656 11.6213 12.2299 11.6237 12.1863C11.6287 12.0988 11.6325 12.0623 11.6692 11.7549C11.8064 10.6037 12.5546 9.40787 13.7922 8.36199C14.6916 7.60193 15.4648 7.12731 16.4559 6.72682C17.3165 6.37905 17.7733 6.30336 18.9968 6.30576C19.82 6.30738 20.4669 6.34485 21.5553 6.45399C23.6136 6.66036 24.9112 6.68019 25.9714 6.52157C26.689 6.41419 27.2846 6.26272 27.5781 6.11298C27.6329 6.08502 27.6843 6.06875 27.6923 6.07685C27.738 6.12266 27.1389 7.44479 26.8109 8.0219C26.7009 8.21559 26.5712 8.44457 26.5226 8.53079C26.0592 9.3542 25.5477 10.0653 25.0452 10.5849C24.4157 11.2358 23.8399 11.637 22.7693 12.1705C22.1066 12.5007 21.9268 12.5795 21.0647 12.9176C20.3607 13.1937 19.1411 13.5444 18.3134 13.7089C17.5228 13.866 16.6884 13.9912 16.4322 13.9912C16.3296 13.9912 16.2456 14.0071 16.2456 14.0264C16.2456 14.0458 16.2653 14.0622 16.2894 14.0627C16.3135 14.0633 16.4515 14.0798 16.5961 14.0992C16.9484 14.1467 18.4419 14.1464 18.9443 14.0988C20.1915 13.9805 21.4144 13.7405 22.308 13.4386C22.8544 13.254 23.2762 13.104 23.3778 13.0581C23.4357 13.032 23.5697 12.9767 23.6757 12.9352C24.2939 12.6932 25.0847 12.2377 25.6184 11.8163C26.0173 11.5013 26.7569 10.7311 27.0809 10.2934C27.469 9.76899 28.1012 8.81724 28.3441 8.39168C28.5694 7.99682 29.1783 6.75154 29.1783 6.68544C29.1783 6.67434 29.2079 6.5981 29.2441 6.51597C29.801 5.25389 30.4016 3.12483 30.4043 2.40333C30.4047 2.3154 30.429 2.15072 30.4583 2.03735C30.4878 1.92399 30.5057 1.82517 30.4983 1.8177C30.4909 1.81027 30.4246 1.87197 30.3509 1.95481ZM5.04981 5.31341C5.78235 6.4088 6.12431 7.01482 6.76677 8.35646C6.92782 8.69275 7.51866 10.0065 7.51866 10.0284C7.51866 10.0374 7.55647 10.1285 7.6027 10.2307C7.64893 10.333 7.7294 10.5197 7.78152 10.6456C7.83363 10.7715 7.91161 10.9537 7.95486 11.0506C7.99808 11.1474 8.07757 11.3455 8.13154 11.4908C8.18551 11.6361 8.24075 11.7708 8.25435 11.7901C8.26791 11.8095 8.49583 12.388 8.76086 13.0756C9.02589 13.7632 9.25546 14.3575 9.27098 14.3962C9.31395 14.5032 9.42891 14.8151 9.56955 15.2062C9.63919 15.3999 9.73459 15.6576 9.78152 15.7789C9.82845 15.9001 9.86687 16.0139 9.86687 16.0317C9.86687 16.0494 9.77616 16.0739 9.66534 16.0861C8.53792 16.2096 7.58784 16.6928 6.74732 17.5701C5.98082 18.3701 5.55075 19.2557 5.4154 20.3127C5.37355 20.6394 5.37439 21.4439 5.4169 21.7742C5.49142 22.3531 5.70966 22.9979 6.0096 23.5254C6.66247 24.6735 7.90997 25.6236 9.09581 25.876C9.24038 25.9067 9.42593 25.9473 9.50812 25.9661C9.59034 25.9849 9.95308 26.0002 10.3142 26C11.2075 25.9995 11.761 25.8839 12.4568 25.5523C13.4119 25.0971 14.2962 24.2162 14.7847 23.2335C15.1282 22.5426 15.263 21.9226 15.263 21.0347C15.263 20.1508 15.1268 19.521 14.7876 18.8365C14.3161 17.8849 13.4554 17.0125 12.5225 16.5404C12.1 16.3267 11.4669 16.1405 10.9776 16.0861C10.8657 16.0737 10.779 16.0494 10.7849 16.0321C10.8124 15.9519 11.4307 15.2856 11.777 14.9631C12.8351 13.9776 14.0331 13.1312 15.5972 12.2642C15.7129 12.2001 16.3674 11.8653 17.0517 11.5203C18.9878 10.5441 19.7207 10.1543 20.8369 9.50743C21.1356 9.33423 21.4157 9.17308 21.4592 9.14924C21.6693 9.03407 22.6241 8.40605 22.6242 8.38287C22.6245 8.29462 21.3536 8.42027 20.567 8.58625C19.3446 8.84418 17.8947 9.31345 16.9213 9.76614C16.7976 9.82372 16.6884 9.8708 16.6788 9.8708C16.6371 9.8708 15.5252 10.4431 15.1416 10.662C12.9002 11.9408 11.1337 13.789 10.4388 15.582L10.3751 15.7465L10.3865 15.0819C10.4187 13.2196 9.90903 11.1542 8.95292 9.27211C8.402 8.18766 7.81902 7.3596 7.08056 6.61268C6.81069 6.33971 6.45001 6.01208 6.27905 5.88463C5.97452 5.65758 5.28922 5.28541 5.08465 5.23596L4.98129 5.21099L5.04981 5.31341ZM10.9945 17.3749C11.6229 17.5029 12.0933 17.7103 12.513 18.0446C13.4842 18.8179 13.9586 19.7977 13.9607 21.0347C13.9623 22.0428 13.6336 22.892 12.9668 23.6023C12.4467 24.1563 11.8685 24.4849 11.1286 24.647C10.7637 24.7269 9.84068 24.7263 9.48134 24.6459C8.24758 24.3698 7.2307 23.44 6.84146 22.2321C6.77634 22.0301 6.72826 21.773 6.6766 21.3509C6.60366 20.7548 6.75139 19.9349 7.03794 19.3456C7.52763 18.3384 8.47073 17.6088 9.56896 17.3876C9.83799 17.3334 10.751 17.3253 10.9945 17.3749Z" fill="white"/>
</svg>
