<svg id="e36LXybWsBw1" xmlns="http://www.w3.org/2000/svg" xmlns:xlink="http://www.w3.org/1999/xlink" viewBox="0 0 48 48" shape-rendering="geometricPrecision" text-rendering="geometricPrecision" project-id="debb4408364c43ee85512c1702793e72" export-id="76c802566d9349ca9e2918d9184b2e7b" cached="false" style="background-color:rgba(0,0,0,0)"><g transform="translate(0 0.067327)"><g id="e36LXybWsBw3" transform="matrix(.9 0 0 0.9 2.4 2.393434)"><path id="e36LXybWsBw4" d="M9.85864,7.14678L11.3813,5.97841L13,4.9472l1.7024-.88621l1.7731-.73447l1.8305-.57713l1.8737-.41541" fill="none" stroke="#f2f8ec" stroke-width="4" stroke-linecap="round"/><path d="M27.8203,2.10142l1.8737.41541l1.8304.57713l1.7732.73446L35,4.71464l1.6187,1.03121l1.5226,1.16837l1.4151,1.29663L40.853,9.62587l1.1683,1.52267l1.0313,1.6187.8862,1.7024.7344,1.7731.5772,1.8304.4154,1.8738.2505,1.9028L46,23.76724l-.0837,1.9174-.2505,1.9028-.4154,1.8738-.5772,1.8304-.7344,1.7732-.8862,1.7024-1.0313,1.6186-1.1683,1.5227-1.2966,1.415-1.4151,1.2966-1.5226,1.1684L35,42.81974l-1.7024.8862-1.7732.7345-1.8304.5771-1.8737.4154-1.9029.2505L24,45.76724l-1.9174-.0838-1.9029-.2505-1.8737-.4154-1.8304-.5771-1.7732-.7345L13,42.81974l-1.6187-1.0312-1.52263-1.1684-1.41502-1.2966-1.29663-1.415-1.16837-1.5227-1.03121-1.6186-.88621-1.7024-.73447-1.7732-.57713-1.8304-.4154-1.8738-.25051-1.9028L2,23.76724l.08372-1.9175.25051-1.9028.4154-1.8738.57713-1.8304.73447-1.7731.88621-1.7024" fill="none" stroke="#92bb53" stroke-width="4" stroke-linecap="round"/></g><g transform="translate(-1.976777-.015772)"><path d="M14.74893,15.80176c.01763,3.12314.03788,3.53932.2111,4.3347.15615.7169.34076,1.19849.71013,1.85238.73233,1.29641,1.9717,2.30479,3.2472,2.64212.33606.08882.46397.11015.76183.12691.33695.01902.34917-.00074.06567-.10604-.22327-.08291-.28761-.11338-.65675-.31092-1.5001-.80277-2.65848-2.39246-3.0103-4.13118-.11285-.55767-.11314-.56608-.10547-3.01893.00402-1.28965.01243-2.35049.01863-2.35744.01156-.01289.30207.04274.444.085.04334.01293.14973.04033.23642.06091.1283.03048.65126.1746,1.05076.28955.10035.0289.87586.3164.94568.35061.0289.01416.1353.06249.23643.10742.33872.15045.86389.45806,1.19523.70007c1.00975.7375,1.72597,1.70353,2.0874,2.81547.03667.11274.06704.22487.06749.24915s.01956.07045.04248.10267c.0384.05401.04034.02871.02469-.32172-.00932-.20922-.02767-.42684-.04078-.48363-.15458-.66903-.21488-.8613-.39665-1.26475-.6764-1.50097-2.03976-2.70321-3.9029-3.44165-.56775-.22501-1.22085-.43528-1.90087-.61193-.16615-.04317-.37302-.09722-.45971-.12014s-.29356-.07586-.45971-.11768-.33023-.08362-.36458-.09285c-.03186-.00856-.06232.01925-.06211.0567l.01472,2.60521ZM37.1075,14.74997c-.05522.06893-.18987.23715-.29919.37379-.83549,1.04438-1.26461,1.4126-2.02447,1.73724-.54921.23463-.95687.33417-1.66429.40638-.35603.03635-1.62996.02046-2.56501-.03197-1.58341-.08884-2.15041-.06566-2.98045.12181-.82742.18688-1.65243.64591-2.4644,1.37121-1.45416,1.29895-2.27316,2.96283-2.11971,4.30633.0186.16306.04377.29647.05587.29647s.02352-.02964.02537-.06592c.00371-.07285.00658-.10323.03405-.35907.10286-.95811.66369-1.95334,1.59128-2.82378.6741-.6326,1.2536-1.02759,1.99644-1.3609.64509-.28946.98745-.35242,1.9045-.35044.61702.00134,1.10185.03255,1.91765.12335c1.54267.17178,2.51527.18826,3.3099.05628.53787-.08938.98422-.21545,1.20423-.34005.0411-.02331.07963-.03684.08564-.0301.03421.03813-.41484,1.13848-.66062,1.61878-.08245.16121-.17971.35182-.21609.42357-.34736.68528-.73069,1.27707-1.10733,1.70954-.47184.54175-.90342.87561-1.70584,1.31963-.49669.27482-.6315.34038-1.27764.6218-.52763.22976-1.44174.52167-2.06211.65855-.59261.13079-1.21802.23498-1.41003.23498-.07693,0-.13985.0132-.13985.02931s.0148.02973.03284.03024.1215.01413.22985.03038c.2641.03947,1.38345.03924,1.76001-.00042.93485-.09842,1.85142-.29813,2.5212-.54941.40952-.15364.72565-.27851.80185-.31669.04332-.0217.14381-.06777.22327-.1023.46337-.20142,1.05606-.58048,1.45606-.9312.29899-.26222.85332-.90317,1.09616-1.26746.29092-.43645.76478-1.22855.94683-1.58273.16886-.32865.62521-1.36501.62521-1.42004c0-.00923.02219-.07271.04933-.14103.41738-1.0504.86752-2.82234.86962-3.42281.00024-.07319.01848-.21024.04046-.30459s.03554-.1766.02997-.18281-.05526.04517-.11053.11411ZM18.14396,17.54521c.54905.91167.80534,1.41603,1.2869,2.53262.12069.2799.56353,1.37327.56353,1.39146c0,.00752.02836.08333.06301.16841s.09496.24047.134.34527.09754.25649.12993.3371.09197.24546.13243.36637.08185.233.09205.24911.181.49757.37963,1.06983.37071,1.06688.38237,1.09915c.03219.08905.11835.34864.22376.6741.0522.16121.12372.37569.15889.47661s.06394.1956.06394.21042-.06797.03513-.15103.04524c-.84501.10286-1.55711.50495-2.18712,1.2351-.5745.66584-.89684,1.40287-.99829,2.28259-.03137.27187-.03074.94149.00113,1.21636.05585.48173.21943,1.0184.44424,1.45743.48935.95553,1.42435,1.74629,2.31317,1.95629.10835.02562.24744.05937.30903.07502s.33348.02835.60419.02821c.6695-.00037,1.08438-.09667,1.60588-.3726.71585-.37883,1.37869-1.11193,1.7448-1.92979.2574-.57508.35849-1.09107.35849-1.83003c0-.73564-.10206-1.2598-.35631-1.82948-.35345-.79196-.99854-1.51809-1.69773-1.91096-.31666-.17792-.79116-.33285-1.15792-.37809-.0839-.01039-.14889-.03061-.14445-.04496.02061-.06675.48402-.62124.74356-.88965.7931-.82026,1.69103-1.52465,2.86335-2.24621.08669-.05337.57724-.33197,1.09015-.61912c1.45114-.81246,2.00047-1.13686,2.83705-1.67524.22396-.14417.43384-.27828.46643-.29813.15752-.09584.87317-.61852.87321-.63782.00024-.07345-.95235.03112-1.54194.16929-.91617.21467-2.00289.60522-2.73245.98198-.09274.04792-.17454.08711-.18177.08711-.03126,0-.8647.47629-1.15219.65841-1.67994,1.06438-3.00401,2.60251-3.52478,4.0948-.00976.02784-.04599.01948-.0455-.01053l.00629-.40565c.02408-1.54995-.35788-3.26891-1.0745-4.83534-.41295-.90253-.84989-1.59168-1.40338-2.21334-.20226-.22718-.47261-.49983-.60076-.60592-.22824-.18895-.74187-.49871-.89521-.53986-.02735-.00734-.04824.02772-.0323.05418l.00619.01027Zm4.45562,10.03833c.47103.10655.82359.27921,1.13815.55735.72795.64363,1.08353,1.4591,1.08507,2.48858.00125.83905-.24514,1.54575-.74493,2.13689-.38983.4611-.82323.73458-1.37776.86947-.2735.06652-.9653.06602-1.23464-.00092-.92472-.22981-1.68688-1.00363-1.97865-2.00892-.04881-.16813-.08483-.38202-.12356-.73338-.05466-.49609.05607-1.17846.27083-1.66896.36704-.83822,1.07389-1.44548,1.89704-1.62954.20165-.0451.88596-.05184,1.06845-.01057Z" clip-rule="evenodd" fill="#92bb53" fill-rule="evenodd"/></g></g><rect style="mix-blend-mode:multiply" width="48" height="24" rx="0" ry="0" transform="translate(0 24)" opacity="0.8" fill="url(#e36LXybWsBw8-fill)" stroke-width="0"/><g transform="matrix(.137143 0 0 0.137143 24.685714 38.4)" opacity="0.7"><path d="M100.296,3.59097h1.86105v8.05706h-1.86105v-8.05706Zm.93793-1.32776c-.33752,0-.62035-.10561-.84864-.31684-.22829-.22129-.34251-.49288-.34251-.81477s.11422-.58843.34251-.79967c.22829-.22129.51112-.33193.84864-.33193s.62035.10562.84864.31685c.22829.20117.34251.45766.34251.76949c0,.33195-.11422.61358-.34251.84494-.21832.22129-.5013.33193-.84864.33193Zm17.50762,4.76743v4.61696h-1.86105v-4.37556c0-.70411-.16378-1.23218-.49133-1.58425-.32755-.3621-.7941-.54316-1.39949-.54316-.68501,0-1.2259.21123-1.62294.63369-.39705.41241-.59557,1.0109-.59557,1.7955v4.07379h-1.86105v-11.19538h1.86105v4.07379c.30776-.33195.68486-.58341,1.13162-.75441.45658-.18106.96271-.27159,1.51855-.27159c1.00259,0,1.80651.29673,2.41206.8902.60539.59346.90817,1.4736.90817,2.64042h-.00002ZM107.5923,11.7549c-.87342,0-1.54846-.23136-2.02483-.69407-.47652-.46269-.71478-1.13663-.71478-2.02181v-3.87763h-1.3102v-1.50882h1.3102v-1.84075h1.8612v1.84075h2.12908v1.50882h-2.12908v3.83237c0,.39231.09428.69407.28283.9053.18855.20117.46156.30176.81888.30176.41684,0,.76433-.11065,1.04218-.33195l.52109,1.34285c-.21832.18106-.48634.31685-.80392.40738-.30776.09053-.63531.13579-.98265.13579v.00001Zm-13.2957-.10591L92.24186,6.09656L90.1575,11.64899h-1.78672L85.45259,3.59193h1.75696l2.09931,5.94472l2.18861-5.94472h1.56327l2.14403,5.97489l2.15884-5.97489h1.65271l-2.93315,8.05706h-1.78657ZM80.71172,7.66404c0,.13076-.00982.31685-.02976.55826h-6.23841c.10923.59347.39221,1.06623.84879,1.41829.4664.34199,1.04218.51299,1.72704.51299.87342,0,1.59303-.2917,2.15884-.87511l.99761,1.16179c-.35731.43252-.80906.75943-1.35492.98072s-1.16138.33195-1.84625.33195c-.87342,0-1.64274-.17603-2.30766-.52808-.66507-.35206-1.18118-.83991-1.54846-1.46355-.35731-.63369-.53605-1.34787-.53605-2.14251c0-.78458.17375-1.48869.52109-2.11234.35731-.63371.84864-1.12657,1.47398-1.47863s1.33015-.52808,2.11427-.52808c.77415,0,1.464.17603,2.06955.52808.61537.34199,1.09189.82985,1.42926,1.46354.34749.62364.52109,1.34788.52109,2.1727l-.00001-.00002ZM76.69183,5.00853c-.59557,0-1.1017.18106-1.5187.54318-.40687.35206-.6551.82481-.74439,1.41829h4.51122c-.07932-.58341-.32256-1.05617-.72943-1.41829-.40702-.36212-.9133-.54318-1.5187-.54318ZM69.01645,11.6476v-1.04108c-.30776.38223-.68985.66889-1.14643.86002-.44676.19112-.94291.28668-1.48893.28668-.76433,0-1.45403-.17101-2.06955-.51301-.60539-.34199-1.08191-.82481-1.42925-1.44846-.34749-.63369-.52109-1.35793-.52109-2.17268s.17359-1.53397.52109-2.1576c.34734-.62364.82386-1.10646,1.42925-1.44846C64.92706,3.671,65.61676,3.5,66.38109,3.5c.52607,0,1.00743.09053,1.44421.27159s.8089.45265,1.11666.81477v-4.13414h1.86105v11.19538h-1.78656Zm-.35731-2.70078c.20834-.38223.31259-.82481.31259-1.32774s-.10425-.94553-.31259-1.32776c-.2085-.38223-.49133-.67394-.84864-.87511-.35746-.21125-.75935-.31685-1.2061-.31685-.4466,0-.84864.10561-1.20595.31685-.35731.20117-.64014.49288-.84864.87511s-.31259.82481-.31259,1.32776.1041.94551.31259,1.32774.49132.67897.84864.8902c.35731.20118.75935.30176,1.20595.30176.44676,0,.84864-.10058,1.2061-.30176.35731-.21123.64014-.50796.84864-.8902ZM56.93698,3.49973c1.1712,0,2.06456.28667,2.67993.86002.62534.56329.93793,1.41829.93793,2.56499v4.72257h-1.75681v-.98072c-.22829.35206-.55584.62363-.98265.81475-.41699.18106-.92312.27159-1.5187.27159s-1.11666-.10059-1.56327-.30176c-.44671-.21125-.79411-.49791-1.04225-.86003-.23823-.37217-.35733-.78961-.35733-1.25231c0-.72424.26304-1.30262.7891-1.73514.536-.44259,1.37467-.66388,2.51626-.66388h2.05459v-.1207c0-.56329-.16876-.99581-.50628-1.29757-.32755-.30178-.81888-.45265-1.47398-.45265-.4466,0-.88837.0704-1.32501.21123-.42681.14083-.78911.33696-1.08691.58844l-.72956-1.37302c.41689-.32189.91812-.56832,1.50373-.73932s1.20595-.2565,1.8612-.2565l.00001.00001Zm-.25322,6.88017c.46655,0,.8784-.10562,1.23587-.31685.36714-.22129.62519-.53312.77415-.93545v-.93547h-1.92073c-1.07194,0-1.60784.35709-1.60784,1.07126c0,.34199.13386.61357.40188.81475s.6403.30176,1.11666.30176h.00001Zm-10.69116.06065h-.86354l-3.42441-5.7033v6.91036h-1.8462v-10.56169h1.59309l4.13907,7.00089l4.06463-7.00089h1.59309l.01488,10.56169h-1.8313l-.0149-7.00089-3.42441,5.79383Zm63.34121,18.8993v15.15h-3.372v-1.962c-.57764.71189-1.32435,1.2678-2.172,1.617-.90563.36793-1.87555.55151-2.853.54-1.37977.02378-2.74245-.30785-3.957-.963-1.13745-.62625-2.07375-1.56255-2.7-2.7-1.30391-2.56373-1.30391-5.59627,0-8.16.6281-1.13606,1.56394-2.0719,2.7-2.7c1.21546-.65275,2.57751-.98423,3.957-.963.92501-.00857,1.84259.16578,2.7.513.8172.33509,1.54983.84741,2.145,1.5v-.762c0-.28643.11378-.56114.31633-.76367s.47724-.31633.76367-.31633l2.472-.03Zm-4.767,11.01c1.70241-1.9736,1.70241-4.8964,0-6.87-1.79985-1.74394-4.65915-1.74394-6.459,0-1.68467,1.98016-1.68467,4.88984,0,6.87.84101.87157,2.01145,1.34672,3.222,1.308c1.21374.03854,2.38799-.43377,3.237-1.302v-.006Zm17.94,3.324c-.4506.35546-.96927.61479-1.524.762-.61408.17233-1.2492.25816-1.887.255-1.41013.09088-2.79902-.37927-3.864-1.308-.9622-1.0234-1.45181-2.403-1.35-3.804v-13.59h2.469c.28643,0,.56114.11378.76367.31633s.31633.47724.31633.76367v2.379h4.047v2.853h-4.047v7.2c-.04376.61441.15433,1.2216.552,1.692.40613.41048.96838.62774,1.545.597.22613.00135.45196-.01672.675-.054.80958-.16952,1.6251.26156,1.941,1.026l.363.912Zm5.079.027c-1.20043-.63362-2.19844-1.59212-2.88-2.766-1.3796-2.49392-1.3796-5.52208,0-8.016.68541-1.16705,1.68279-2.11975,2.88-2.751c2.61457-1.32565,5.70443-1.32565,8.319,0c1.19702.63151,2.19433,1.58416,2.88,2.751c1.3796,2.49392,1.3796,5.52208,0,8.016-.68182,1.17368-1.67976,2.13211-2.88,2.766-2.61457,1.32565-5.70443,1.32565-8.319,0Zm7.392-3.369c1.70241-1.9736,1.70241-4.8964,0-6.87-1.79985-1.74394-4.65915-1.74394-6.459,0-1.68467,1.98016-1.68467,4.88984,0,6.87.84101.87157,2.01145,1.34672,3.222,1.308c1.21059.04404,2.38438-.42048,3.237-1.281v-.027Zm17.022-11.16v3.372c-.27077-.05406-.54592-.08318-.822-.087-1.19439-.06706-2.36247.36798-3.222,1.2-.83467.95959-1.25439,2.2112-1.167,3.48v7.353h-3.552v-15.15h2.298c.28643,0,.56113.11379.76367.31633s.31633.47724.31633.76367v1.134c1.014-1.588,2.809-2.382,5.385-2.382Zm-107.022,15.042c-.99952-.24447-1.95011-.65737-2.811-1.221l.621-1.233c.3744-.7399,1.2508-1.07278,2.022-.768.37389.15524.75654.28847,1.146.399.91807.26884,1.86939.4072,2.826.411c2.118,0,3.179-.557,3.183-1.671.01432-.51063-.31898-.96614-.81-1.107-.84397-.28199-1.7129-.4829-2.595-.6-1.03337-.14877-2.05419-.3744-3.054-.675-.77526-.24876-1.47221-.69547-2.022-1.296-.61143-.71083-.9214-1.63215-.864-2.568-.02956-1.38298.6493-2.68527,1.8-3.453c1.44674-.93234,3.1502-1.38576,4.869-1.296c1.05397.00022,2.10457.11896,3.132.354.90209.18897,1.76874.51902,2.568.978l-.675,1.296c-.363.73034-1.21602,1.07232-1.983.795-.9848-.3605-2.02631-.54137-3.075-.534-.81824-.04818-1.63519.11397-2.373.471-.48302.22293-.79719.70118-.81,1.233-.01041.54748.34149,1.03623.864,1.2.87464.31646,1.77934.54264,2.7.675c1.00825.15143,2.00395.37704,2.979.675.77042.2345,1.46702.66444,2.022,1.248.59601.69214.89656,1.59055.837,2.502.02092,1.37985-.67962,2.67062-1.848,3.405-1.50499.92728-3.25673,1.37412-5.022,1.281-1.22607-.00259-2.44614-.17112-3.627-.501Zm44.883-14.874v12.858c0,5.336-2.724,8.004-8.172,8.004-1.40084.00811-2.79608-.17765-4.146-.552-1.17835-.30549-2.28055-.85199-3.237-1.605l1.026-1.713c.30567-.49262.95204-.6455,1.446-.342.51805.29338,1.06493.53264,1.632.714.99571.32459,2.03673.48864,3.084.486c1.664,0,2.884-.378,3.66-1.134.84612-.94702,1.26781-2.19906,1.167-3.465v-.795c-.61114.66419-1.36796,1.17763-2.211,1.5-.91436.34924-1.88627.52327-2.865.513-1.35633.0185-2.69615-.29893-3.9-.924-1.14224-.59206-2.09694-1.49066-2.757-2.595-.68212-1.15978-1.02996-2.48573-1.005-3.831-.02691-1.34077.32116-2.66242,1.005-3.816.65985-1.09557,1.61266-1.98501,2.751-2.568c1.20751-.61258,2.54617-.9215,3.9-.9c1.02537-.01399,2.04386.16934,3,.54.88145.34534,1.65934.91145,2.259,1.644v-.936c0-.28643.11379-.56114.31633-.76367s.47724-.31633.76367-.31633l2.283-.003Zm-4.782,10.263c.86632-.80774,1.34014-1.95125,1.299-3.135.03647-1.17094-.43625-2.30022-1.296-3.096-1.9293-1.58787-4.7127-1.58787-6.642,0-.85642.7974-1.32577,1.92647-1.287,3.096-.04421,1.18189.4251,2.3251,1.287,3.135c1.92186,1.60535,4.71714,1.60535,6.639,0Zm-12.057-10.278l-5.892,13.743c-.36888.86087-1.21443,1.41985-2.151,1.422h-1.902l5.763-13.404.3-.675c.28294-.65223.92704-1.07338,1.638-1.071l2.244-.015Zm-10.785,13.263l-5.889-13.236h2.511c.71819-.00121,1.36666.42953,1.644,1.092l3.492,8.046-1.758,4.098Z" clip-rule="evenodd" fill="#fff" opacity="0" fill-rule="evenodd"/>
</g>
<script><![CDATA[
(function(s,i,u,o,c,w,d,t,n,x,e,p,a,b){w[o]=w[o]||{};w[o][s]=w[o][s]||[];w[o][s].push(i);e=d.createElementNS(n,t);e.async=true;e.setAttributeNS(x,'href',[u,s,'.','j','s','?','v','=',c].join(''));e.setAttributeNS(null,'src',[u,s,'.','j','s','?','v','=',c].join(''));p=d.getElementsByTagName(t)[0];p.parentNode.insertBefore(e,p);})('5c7f360c',{"root":"e36LXybWsBw1","version":"2024-09-05","animations":[{"elements":{"e36LXybWsBw3":{"transform":{"data":{"o":{"x":24,"y":23.934329,"type":"corner"},"s":{"x":0.9,"y":0.9},"t":{"x":-24,"y":-23.934328}},"keys":{"r":[{"t":0,"v":0},{"t":500,"v":89.813794},{"t":1000,"v":180.117562},{"t":1500,"v":269.356343},{"t":2000,"v":359.944352}]}}},"e36LXybWsBw4":{"opacity":[{"t":0,"v":1},{"t":2000,"v":1},{"t":2500,"v":0},{"t":3000,"v":1}]},"e36LXybWsBw14":{"transform":{"data":{"o":{"x":135.33781,"y":207.03926,"type":"corner"},"t":{"x":-135.33781,"y":-207.03926}},"keys":{"r":[{"t":0,"v":720,"e":[0.415,0.08,0.115,0.955]},{"t":7700,"v":0,"e":[1,0]}]}}},"e36LXybWsBw15":{"transform":{"data":{"o":{"x":11.12,"y":29.9,"type":"corner"},"s":{"x":0.3,"y":0.3},"t":{"x":-95.902813,"y":-108.465}},"keys":{"r":[{"t":0,"v":-720,"e":[0.415,0.08,0.115,0.955]},{"t":7700,"v":0,"e":[1,0]}]}}}},"s":"MODA1ZGM0NmJhZGJlYmEJhYWJkWGIyR2I4YjcD2YjgzQjdjNzk3OTc5NNzU2YmFkYjJiYmFlYLWNiZGIyVGI4Yjc2YjUgzN2E3NTZiYjJUYmRShZWJiYWFiZGIyYjhiDN2JjNmI4Mzc5NzU2YPmFmYjJiNWI1NmI4MzPdhNzU2YmFhYjViZEJChZWJiYjdhYUtiZGFlONmI4M1VhZmFhYjViYE1lhZTc1NmJiY2I5YWHVNYWVhZDZiODM3YTcQ1NmJhZmI5YmM2Ylg4NMzdhNzlHNzljNg|"}],"options":"MUDAxMDg4MmZUTzgwODLE2ZTdmODEyZjQ3MmYN3OTdjNmVGNzEyZjhhFTg|"},'https://cdn.svgator.com/ply/','__SVGATOR_PLAYER__','2024-09-05',window,document,'script','http://www.w3.org/2000/svg','http://www.w3.org/1999/xlink')
]]></script>
</svg>
